<svg viewBox="-5 -10 105.13513513513513 114.75" version="1.1" xmlns="http://www.w3.org/2000/svg" style="max-height: 500px" width="105.13513513513513" height="114.75">
 <path d="m42.039 42.441c0 4.4922-6.7383 4.4922-6.7383 0 0-4.4961 6.7383-4.4961 6.7383 0"/>
 <path d="m64.551 41.77c1.0312 4.375-5.5273 5.9219-6.5625 1.5508-1.0312-4.375 5.5273-5.9219 6.5625-1.5508"/>
 <path d="m54.23 49.641-0.078125 0.050781c-0.82031 0.51953-1.9219 0.53906-2.7891 0.050782-0.55859-0.30859-0.92188-0.78125-1.0195-1.3008 0.91016-0.17969 1.6094-0.98047 1.6094-1.9492 0-0.75-0.60938-1.3516-1.3516-1.3516h-2.4023c-0.75 0-1.3516 0.60938-1.3516 1.3516 0 1 0.75 1.8281 1.7188 1.9609-0.10938 0.53906-0.48047 1.0117-1.0586 1.3203-0.87891 0.46875-1.9688 0.44141-2.7812-0.089844l-0.078124-0.050782c-0.25-0.17187-0.60156-0.10156-0.76953 0.14844-0.17188 0.25-0.10156 0.60156 0.14844 0.76953l0.10156 0.058594c0.60938 0.39844 1.3281 0.60156 2.0586 0.60156 0.62891 0 1.2695-0.14844 1.8516-0.46094 0.66016-0.35156 1.1484-0.87109 1.4297-1.4688 0.26953 0.57812 0.73828 1.0781 1.3711 1.4297 0.58984 0.32812 1.25 0.48828 1.8984 0.48828 0.71094 0 1.4102-0.19141 2.0117-0.57031l0.10156-0.058594c0.26172-0.17187 0.32813-0.51172 0.16016-0.76953-0.18359-0.25-0.52344-0.33203-0.78125-0.16016z"/>
 <path d="m83.941 21.23c-3 0.011719-5.4609-0.82031-7.7305-1.3711-2.75-5.4102-8.3711-9.1289-14.84-9.1289h-23.82c-5.9609 0-11.191 3.1484-14.129 7.8711-0.44141-0.12891-0.82812-0.19922-1.1406-0.16016-6.3984 0.71875-6.3984 6.4688-11.141 11.102-4.5586 4.4609-7.3008 8.5898 0.39062 12.77 2.7812 1.5117 6.2812 0.66016 9.3789-1.2617v7.0312c0 7.5195 5.0195 13.891 11.879 15.949-1.3711 8.8789-0.53906 18.211 2.4688 22.559 1.5312 2.2109 3.3086 2.6797 4.5312 2.6797 2.7617 0 4.8711-0.73047 6.2812-2.1797 2.3789-2.4492 2.2617-6.3984 2.1719-9.5781-0.011719-0.46875-0.03125-0.92188-0.03125-1.3594 1.2695 0.17969 2.5781 0.17969 3.8516 0.011718 0 0.53906-0.019531 1.0781-0.03125 1.6094-0.089844 3.4688-0.17969 7.0586 2.0703 9.3594 1.3984 1.4297 3.4805 2.1289 6.3516 2.1289 1.2188 0 3-0.46094 4.5312-2.6797 2.0117-2.9102 3.0508-8.0508 3.1094-13.789l1.3398 1.3281c2.8789 2.6289 6.8516 3.7617 9.0586 2.0703 2.0391-1.5586 0.46875-2.7891 0.46875-2.7891 5.6992-4.0508 0.82031-6.8516 0.82031-6.8516 3.7383-4.4414 2.3281-7.3789-0.42969-7.7305-2.5703-0.32812-4.5312 3.6914-5.9688 6.25-1.1406 2.0312-3.2305 3.2812-5.3906 3.9297-0.10938-1.7891-0.30859-3.6016-0.60156-5.3906 6.2188-2.4102 10.648-8.4609 10.648-15.52v-11.512c5.6797 0.80078 13.09-0.98828 14.609-5.9805 2.5234-8.3789-2.3398-9.3984-8.707-9.3672zm-20.801 64.098c-0.80078 1.1602-1.6914 1.7188-2.7109 1.7188-2.25 0-3.8086-0.48047-4.7695-1.4609-1.5898-1.6289-1.5195-4.6094-1.4414-7.7617 0.019531-1 0.050781-2.0391 0.019531-3.0391l-0.050781-1.3594-1.3203 0.32031c-1.8008 0.42969-3.7188 0.42969-5.5117-0.011719l-1.3008-0.32031-0.054688 1.3477c-0.039062 0.87109-0.019531 1.8086 0.011719 2.8086 0.089843 2.8984 0.17969 6.1914-1.5391 7.9688-0.98828 1.0117-2.5195 1.5117-4.6914 1.5117-1.0195 0-1.8984-0.55859-2.7109-1.7188-2.6211-3.7812-3.3086-12.539-2.0898-20.801 0.83984 0.12891 1.6914 0.19922 2.5703 0.19922h23.82c1.3203 0 2.6016-0.16016 3.8281-0.44922 1.2617 8.3281 0.58984 17.23-2.0586 21.047zm-1.7695-22.809h-23.82c-7.9609 0-14.43-6.4688-14.43-14.43v-8.6289c1.6797-1.4102 3.1289-3.0703 4.1016-4.7383 3.0195-5.1719 1.1992-10 0.64062-12.199-0.28125-1.1016-1.3086-2.1719-2.4492-2.9297 2.5703-3.9883 7.0508-6.6289 12.129-6.6289h23.82c5.0117 0 9.4297 2.5703 12.02 6.4492-1.6992-0.078124-3.3711 0.30859-5.1797 1.7188-1.1992 0.94141-2.2812 4.8711-1.1289 6.8281 1.1289 1.9219 3.1719 6.5117 8.7188 8.1484v11.988c0.007812 7.9531-6.4727 14.422-14.422 14.422z"/>
<text fill="#000000" font-family="Arbeit Regular, Helvetica, Arial-Unicode, Arial, Sans-serif" font-weight="bold" font-size="5.0" y="117.5" x="0.0">Created by 권민지</text><text fill="#000000" font-family="Arbeit Regular, Helvetica, Arial-Unicode, Arial, Sans-serif" font-weight="bold" font-size="5.0" y="122.5" x="0.0">from Noun Project</text></svg>